# xmcd
#
# Track frame offsets:
#	150
#	17070
#	30982
#	41965
#	60657
#	71647
#	88495
#	100885
#	114620
#	126045
#	145285
#	180752
#	208375
#	222420
#	239025
#
# Disc length: 3515 seconds
#
# Revision: 5
# Processed by: cddbd v1.5.1PL0 Copyright (c) Steve Scherf et al.
# Submitted via: MusicWizard 7.0.2
#
DISCID=e50db90f
DTITLE=Zillertaler Schürzenjäger - Rebellion In Den Alpen [CD 2/2)
DYEAR=2000
DGENRE=Deutsch
TTITLE0=Wenn Die Nacht Kommt
TTITLE1=Dafür Mach Ma Musik
TTITLE2=Zillertaler Hochzeitsmarsch
TTITLE3=Alle Sirenen Gingen Los
TTITLE4=Typisch Für Mi
TTITLE5=Auf Einmal Warst Du Da
TTITLE6=Der Jodelautomat
TTITLE7=Highway Crew
TTITLE8=Jede Nacht A Lange Nacht
TTITLE9=Jeden Herzschlag Wert
TTITLE10=Rock - Potpourri
TTITLE11=Grosser Manitou
TTITLE12=Willkommen Europa
TTITLE13=Schürzenjägerzeit
TTITLE14=Sierra Madre
EXTD=
EXTT0=
EXTT1=
EXTT2=
EXTT3=
EXTT4=
EXTT5=
EXTT6=
EXTT7=
EXTT8=
EXTT9=
EXTT10=
EXTT11=
EXTT12=
EXTT13=
EXTT14=
PLAYORDER=
